<?xml version="1.0" encoding="UTF-8" standalone="no"?>
<svg
   xmlns:dc="http://purl.org/dc/elements/1.1/"
   xmlns:cc="http://creativecommons.org/ns#"
   xmlns:rdf="http://www.w3.org/1999/02/22-rdf-syntax-ns#"
   xmlns:svg="http://www.w3.org/2000/svg"
   xmlns="http://www.w3.org/2000/svg"
   xmlns:sodipodi="http://sodipodi.sourceforge.net/DTD/sodipodi-0.dtd"
   xmlns:inkscape="http://www.inkscape.org/namespaces/inkscape"
   width="37.599998pt"
   height="40.799999pt"
   viewBox="0 0 37.599998 40.799999"
   version="1.1"
   id="svg2"
   inkscape:version="0.91 r13725"
   sodipodi:docname="call.svg">
  <metadata
     id="metadata13">
    <rdf:RDF>
      <cc:Work
         rdf:about="">
        <dc:format>image/svg+xml</dc:format>
        <dc:type
           rdf:resource="http://purl.org/dc/dcmitype/StillImage" />
        <dc:title></dc:title>
      </cc:Work>
    </rdf:RDF>
  </metadata>
  <defs
     id="defs11" />
  <sodipodi:namedview
     pagecolor="#ffffff"
     bordercolor="#666666"
     borderopacity="1"
     objecttolerance="10"
     gridtolerance="10"
     guidetolerance="10"
     inkscape:pageopacity="0"
     inkscape:pageshadow="2"
     inkscape:window-width="801"
     inkscape:window-height="480"
     id="namedview9"
     showgrid="false"
     fit-margin-top="0"
     fit-margin-left="0"
     fit-margin-right="0"
     fit-margin-bottom="0"
     inkscape:zoom="3.7019608"
     inkscape:cx="29.375"
     inkscape:cy="31.875"
     inkscape:window-x="0"
     inkscape:window-y="0"
     inkscape:window-maximized="0"
     inkscape:current-layer="svg2" />
  <g
     id="#ffffffff"
     transform="scale(0.8,0.8)">
    <path
       d="m 19.49,0 5,0 c 3.37,0.67 6.85,1.66 9.37,4.13 2.9,2.39 4.06,6.07 5.57,9.36 -1.1,-0.1 -2.21,-0.21 -3.32,-0.31 l 1.55,-0.42 C 36.29,7.61 32.4,3.05 27.09,1.82 19.39,-0.54 10.96,5.12 9.38,12.85 c 0.52,0.42 1.56,1.25 2.08,1.67 0.67,-2.16 1.22,-4.48 2.81,-6.19 6.16,-6.62 19.98,-4.03 21.13,5.77 1.42,-0.17 2.86,-0.3 4.29,-0.36 0.13,2.59 0.87,5.41 -0.11,7.88 C 38,23.8 35.66,21.87 35.1,19.93 33.52,25.46 29.48,31.78 23,31.55 16.92,31.05 13.42,25.07 11.86,19.8 c -0.65,1.13 -1.32,2.25 -2.01,3.36 1.15,2.1 2.22,4.35 4.08,5.93 1.81,1.58 4.86,1.52 5.67,4.16 -0.64,0 -1.93,0 -2.57,0 C 12.32,30.36 9.76,25.46 7.05,20.88 6.34,16.35 8.2,12.11 10,8.08 12.42,3.53 17.26,0.73 22.28,0.01 L 19.49,0 Z"
       id="path5"
       inkscape:connector-curvature="0"
       style="opacity:1;fill:#ffffff" />
    <path
       d="m 0,43.79 c 1.22,-6.88 8.32,-9.1 13.78,-11.73 1.74,3.68 3.48,7.36 5.44,10.93 0.92,-2.37 1.82,-4.75 2.76,-7.12 0.76,0 2.28,0 3.04,0 0.88,2.24 1.74,4.49 2.62,6.73 1.92,-3.47 3.58,-7.07 5.37,-10.61 5.52,2.62 12.69,4.83 13.99,11.75 L 47,51 0,51 0,43.79 Z"
       id="path7"
       inkscape:connector-curvature="0"
       style="opacity:1;fill:#ffffff" />
  </g>
</svg>
