<?xml version="1.0" encoding="UTF-8" standalone="no"?>
<svg
   xmlns:dc="http://purl.org/dc/elements/1.1/"
   xmlns:cc="http://creativecommons.org/ns#"
   xmlns:rdf="http://www.w3.org/1999/02/22-rdf-syntax-ns#"
   xmlns:svg="http://www.w3.org/2000/svg"
   xmlns="http://www.w3.org/2000/svg"
   xmlns:sodipodi="http://sodipodi.sourceforge.net/DTD/sodipodi-0.dtd"
   xmlns:inkscape="http://www.inkscape.org/namespaces/inkscape"
   width="32pt"
   height="40.799999pt"
   viewBox="0 0 32 40.799999"
   version="1.1"
   id="svg2"
   inkscape:version="0.91 r13725"
   sodipodi:docname="document.svg">
  <metadata
     id="metadata15">
    <rdf:RDF>
      <cc:Work
         rdf:about="">
        <dc:format>image/svg+xml</dc:format>
        <dc:type
           rdf:resource="http://purl.org/dc/dcmitype/StillImage" />
        <dc:title></dc:title>
      </cc:Work>
    </rdf:RDF>
  </metadata>
  <defs
     id="defs13" />
  <sodipodi:namedview
     pagecolor="#ffffff"
     bordercolor="#666666"
     borderopacity="1"
     objecttolerance="10"
     gridtolerance="10"
     guidetolerance="10"
     inkscape:pageopacity="0"
     inkscape:pageshadow="2"
     inkscape:window-width="805"
     inkscape:window-height="480"
     id="namedview11"
     showgrid="false"
     inkscape:zoom="3.8530612"
     inkscape:cx="24.375"
     inkscape:cy="34.488285"
     inkscape:window-x="0"
     inkscape:window-y="0"
     inkscape:window-maximized="0"
     inkscape:current-layer="svg2"
     fit-margin-top="0"
     fit-margin-left="0"
     fit-margin-right="0"
     fit-margin-bottom="0" />
  <g
     id="#ffffffff"
     transform="scale(0.82051282,0.83265306)">
    <path
       d="M 8.94,0 37.26,0 C 36.99,0.35 36.45,1.06 36.18,1.41 26.87,0.96 17.53,1.37 8.21,1.2 L 8.01,0.66 8.94,0 Z"
       id="path5"
       inkscape:connector-curvature="0"
       style="opacity:1;fill:#ffffff" />
    <path
       d="M 37.61,2.82 C 37.96,2.57 38.65,2.06 39,1.81 l 0,36.04 -1.29,0.11 C 37.58,26.25 38.01,14.53 37.61,2.82 Z"
       id="path7"
       inkscape:connector-curvature="0"
       style="opacity:1;fill:#ffffff" />
    <path
       d="M 0,5.96 C 0.76,4.46 2.08,2.87 3.95,3.01 13.31,2.98 22.68,2.98 32.04,3.01 34.56,2.91 36.32,5.54 36,7.89 35.86,18.09 36.29,28.35 35.79,38.51 32.34,42.07 28.8,45.53 25.27,49 L 2.86,49 C 1.92,48.26 1.25,46.88 0,46.68 L 0,5.96 m 2.87,2.98 c 0.12,0.41 0.37,1.23 0.49,1.65 9.77,0.09 19.55,0.08 29.31,0 0.12,-0.41 0.35,-1.24 0.46,-1.65 C 23.04,8.83 12.95,8.82 2.87,8.94 m 0,5.95 c 0.12,0.4 0.36,1.21 0.49,1.62 9.74,0.08 19.49,0.09 29.23,-0.01 0.13,-0.4 0.4,-1.21 0.54,-1.61 -10.08,-0.23 -20.19,-0.23 -30.26,0 m 0.07,5.89 0.11,1.45 c 9.93,0.4 19.96,0.36 29.89,0.02 l 0.13,-1.47 c -10.03,-0.24 -20.09,-0.23 -30.13,0 m -0.01,5.91 0.13,1.41 c 8.6,0.62 17.3,0.07 25.94,0.28 1.35,-0.34 4.74,0.91 4.07,-1.71 -10.04,-0.21 -20.1,-0.24 -30.14,0.02 m 21.11,11.2 c -0.1,3.36 -0.06,6.72 0.03,10.07 3.97,-3.16 7.51,-6.9 10.87,-10.69 -3.3,-0.47 -6.66,-0.24 -9.99,-0.19 -0.23,0.2 -0.68,0.61 -0.91,0.81 z"
       id="path9"
       inkscape:connector-curvature="0"
       style="opacity:1;fill:#ffffff" />
  </g>
</svg>
