<?xml version="1.0" encoding="UTF-8" standalone="no"?>
<svg
   xmlns:dc="http://purl.org/dc/elements/1.1/"
   xmlns:cc="http://creativecommons.org/ns#"
   xmlns:rdf="http://www.w3.org/1999/02/22-rdf-syntax-ns#"
   xmlns:svg="http://www.w3.org/2000/svg"
   xmlns="http://www.w3.org/2000/svg"
   xmlns:sodipodi="http://sodipodi.sourceforge.net/DTD/sodipodi-0.dtd"
   xmlns:inkscape="http://www.inkscape.org/namespaces/inkscape"
   width="36pt"
   height="40.799999pt"
   viewBox="0 0 36 40.799999"
   version="1.1"
   id="svg2"
   inkscape:version="0.91 r13725"
   sodipodi:docname="file.svg">
  <metadata
     id="metadata15">
    <rdf:RDF>
      <cc:Work
         rdf:about="">
        <dc:format>image/svg+xml</dc:format>
        <dc:type
           rdf:resource="http://purl.org/dc/dcmitype/StillImage" />
        <dc:title></dc:title>
      </cc:Work>
    </rdf:RDF>
  </metadata>
  <defs
     id="defs13" />
  <sodipodi:namedview
     pagecolor="#ffffff"
     bordercolor="#666666"
     borderopacity="1"
     objecttolerance="10"
     gridtolerance="10"
     guidetolerance="10"
     inkscape:pageopacity="0"
     inkscape:pageshadow="2"
     inkscape:window-width="801"
     inkscape:window-height="480"
     id="namedview11"
     showgrid="false"
     fit-margin-top="0"
     fit-margin-left="0"
     fit-margin-right="0"
     fit-margin-bottom="0"
     inkscape:zoom="4.0170213"
     inkscape:cx="25.625"
     inkscape:cy="29.375"
     inkscape:window-x="0"
     inkscape:window-y="0"
     inkscape:window-maximized="0"
     inkscape:current-layer="svg2" />
  <g
     id="#ffffffff"
     transform="scale(0.87804878,0.86808511)">
    <path
       d="m 13.35,0 21.34,0 c 0.35,0.28 1.05,0.85 1.4,1.14 0.32,4.17 0,8.37 0.17,12.56 -0.43,0.21 -1.29,0.63 -1.73,0.84 -6.75,6.6 -13.59,13.12 -20.24,19.82 -1.98,3.4 -3.87,6.87 -6,10.17 C 6.05,44.74 3.77,44.68 1.53,44.55 1.15,44.2 0.38,43.48 0,43.13 L 0,13.68 C 4.08,8.81 8.68,4.3 13.35,0 m 1.7,2.01 c -0.11,4.28 0.01,8.57 -0.06,12.86 -4.32,0.03 -8.64,-0.05 -12.95,0.03 0,0.58 0,1.72 0,2.29 4.94,-0.08 10,0.45 14.87,-0.27 C 17.82,12.09 17.12,6.98 17.27,2.04 16.72,2.03 15.6,2.02 15.05,2.01 Z"
       id="path5"
       inkscape:connector-curvature="0"
       style="opacity:1;fill:#ffffff" />
    <path
       d="M 16.5,36.41 C 23.08,29.9 29.54,23.25 36.3,16.93 37.98,18.51 39.47,20.27 41,22 l 0,0.19 c -6.35,6.54 -12.95,12.85 -19.39,19.31 -3.12,1.7 -6.09,3.81 -9.48,4.92 l 0.45,0.58 -1.54,0 c 0.79,-3.88 3.62,-7.1 5.46,-10.59 z"
       id="path7"
       inkscape:connector-curvature="0"
       style="opacity:1;fill:#ffffff" />
    <path
       d="M 23.56,43.68 C 27.8,39.47 32,35.22 36.28,31.06 c -0.29,4.26 0.29,8.6 -0.3,12.83 -4.44,1.8 -9.69,0.12 -14.44,0.87 0.51,-0.27 1.52,-0.81 2.02,-1.08 z"
       id="path9"
       inkscape:connector-curvature="0"
       style="opacity:1;fill:#ffffff" />
  </g>
</svg>
