<?xml version="1.0" encoding="UTF-8" standalone="no"?>
<svg
   xmlns:dc="http://purl.org/dc/elements/1.1/"
   xmlns:cc="http://creativecommons.org/ns#"
   xmlns:rdf="http://www.w3.org/1999/02/22-rdf-syntax-ns#"
   xmlns:svg="http://www.w3.org/2000/svg"
   xmlns="http://www.w3.org/2000/svg"
   xmlns:sodipodi="http://sodipodi.sourceforge.net/DTD/sodipodi-0.dtd"
   xmlns:inkscape="http://www.inkscape.org/namespaces/inkscape"
   viewBox="0 0 104 104"
   height="104"
   width="104"
   xml:space="preserve"
   version="1.1"
   id="svg3401"
   inkscape:version="0.91 r13725"
   sodipodi:docname="loupe.svg"><sodipodi:namedview
     pagecolor="#ffffff"
     bordercolor="#666666"
     borderopacity="1"
     objecttolerance="10"
     gridtolerance="10"
     guidetolerance="10"
     inkscape:pageopacity="0"
     inkscape:pageshadow="2"
     inkscape:window-width="795"
     inkscape:window-height="480"
     id="namedview72"
     showgrid="false"
     fit-margin-top="0"
     fit-margin-left="0"
     fit-margin-right="0"
     fit-margin-bottom="0"
     inkscape:zoom="1.8092956"
     inkscape:cx="66.24981"
     inkscape:cy="65.21875"
     inkscape:window-x="0"
     inkscape:window-y="0"
     inkscape:window-maximized="0"
     inkscape:current-layer="svg3401" /><metadata
     id="metadata3407"><rdf:RDF><cc:Work
         rdf:about=""><dc:format>image/svg+xml</dc:format><dc:type
           rdf:resource="http://purl.org/dc/dcmitype/StillImage" /><dc:title></dc:title></cc:Work></rdf:RDF></metadata><defs
     id="defs3405"><clipPath
       id="clipPath3415"
       clipPathUnits="userSpaceOnUse"><path
         id="path3417"
         d="m 0,104.35 116.569,0 L 116.569,0 0,0 0,104.35 Z"
         inkscape:connector-curvature="0" /></clipPath><clipPath
       id="clipPath3427"
       clipPathUnits="userSpaceOnUse"><path
         id="path3429"
         d="m 63.57,104.35 c -29.224,0 -53,-23.406 -53,-52.175 l 0,0 C 10.57,23.405 34.346,0 63.57,0 l 0,0 c 29.224,0 52.999,23.405 52.999,52.175 l 0,0 c 0,28.769 -23.775,52.175 -52.999,52.175 z"
         inkscape:connector-curvature="0" /></clipPath><clipPath
       id="clipPath3471"
       clipPathUnits="userSpaceOnUse"><path
         id="path3473"
         d="m 0,104.35 116.569,0 L 116.569,0 0,0 0,104.35 Z"
         inkscape:connector-curvature="0" /></clipPath><clipPath
       id="clipPath3483"
       clipPathUnits="userSpaceOnUse"><path
         id="path3485"
         d="m 47.1621,69.3647 39.6172,0 0,-39.6088 -39.6172,0 0,39.6088 z"
         inkscape:connector-curvature="0" /></clipPath><clipPath
       id="clipPath3499"
       clipPathUnits="userSpaceOnUse"><path
         id="path3501"
         d="m 47.8252,68.7041 29.4228,0 0,-37.4048 -29.4228,0 0,37.4048 z"
         inkscape:connector-curvature="0" /></clipPath></defs><g
     transform="matrix(0.98113485,0,0,-0.9966459,-10.369909,104)"
     id="g3409"><g
       id="g3411"><g
         clip-path="url(#clipPath3415)"
         id="g3413"><g
           transform="translate(63.5693,0)"
           id="g3419"><path
             id="path3421"
             style="fill:#f4da80;fill-opacity:1;fill-rule:nonzero;stroke:none"
             d="m 0,0 c -29.224,0 -53,23.405 -53,52.175 0,28.769 23.776,52.175 53,52.175 29.225,0 53,-23.406 53,-52.175 C 53,23.405 29.225,0 0,0"
             inkscape:connector-curvature="0" /></g></g></g><g
       id="g3423"><g
         clip-path="url(#clipPath3427)"
         id="g3425"><path
           id="path3431"
           style="fill:#e5e8ec;fill-opacity:1;fill-rule:nonzero;stroke:none"
           d="m 85.166,20.303 -85.166,0 0,63.976 85.166,0 0,-63.976 z"
           inkscape:connector-curvature="0" /><path
           id="path3433"
           style="fill:#cdd5d7;fill-opacity:1;fill-rule:nonzero;stroke:none"
           d="m 85.166,78.167 -85.166,0 0,6.112 85.166,0 0,-6.112 z"
           inkscape:connector-curvature="0" /><path
           id="path3435"
           style="fill:#ffffff;fill-opacity:1;fill-rule:nonzero;stroke:none"
           d="m 81.499,79.694 -50.53,0 0,3.056 50.53,0 0,-3.056 z"
           inkscape:connector-curvature="0" /><g
           transform="translate(12.2246,81.2227)"
           id="g3437"><path
             id="path3439"
             style="fill:#01bacc;fill-opacity:1;fill-rule:nonzero;stroke:none"
             d="m 0,0 c 0,-0.674 -0.547,-1.223 -1.223,-1.223 -0.674,0 -1.222,0.549 -1.222,1.223 0,0.677 0.548,1.222 1.222,1.222 C -0.547,1.222 0,0.677 0,0"
             inkscape:connector-curvature="0" /></g><path
           id="path3441"
           style="fill:#f7f8fc;fill-opacity:1;fill-rule:nonzero;stroke:none"
           d="m 77.962,20.803 -70.277,0 0,49.392 70.277,0 0,-49.392 z"
           inkscape:connector-curvature="0" /><path
           id="path3443"
           style="fill:#b7bec0;fill-opacity:1;fill-rule:nonzero;stroke:none"
           d="m 45.254,57.875 -28.953,0 0,2.234 28.953,0 0,-2.234 z"
           inkscape:connector-curvature="0" /><path
           id="path3445"
           style="fill:#b7bec0;fill-opacity:1;fill-rule:nonzero;stroke:none"
           d="m 24.479,48.868 -8.178,0 0,0.917 8.178,0 0,-0.917 z"
           inkscape:connector-curvature="0" /><path
           id="path3447"
           style="fill:#b7bec0;fill-opacity:1;fill-rule:nonzero;stroke:none"
           d="m 68.021,44.504 -51.72,0 0,0.917 51.72,0 0,-0.917 z"
           inkscape:connector-curvature="0" /><path
           id="path3449"
           style="fill:#b7bec0;fill-opacity:1;fill-rule:nonzero;stroke:none"
           d="m 69.346,42.332 -53.045,0 0,0.918 53.045,0 0,-0.918 z"
           inkscape:connector-curvature="0" /><path
           id="path3451"
           style="fill:#b7bec0;fill-opacity:1;fill-rule:nonzero;stroke:none"
           d="m 41.939,40.161 -25.639,0 0,0.917 25.639,0 0,-0.917 z"
           inkscape:connector-curvature="0" /><path
           id="path3453"
           style="fill:#b7bec0;fill-opacity:1;fill-rule:nonzero;stroke:none"
           d="m 69.346,34.976 -53.045,0 0,0.916 53.045,0 0,-0.916 z"
           inkscape:connector-curvature="0" /><path
           id="path3455"
           style="fill:#b7bec0;fill-opacity:1;fill-rule:nonzero;stroke:none"
           d="m 69.346,32.803 -53.045,0 0,0.916 53.045,0 0,-0.916 z"
           inkscape:connector-curvature="0" /><path
           id="path3457"
           style="fill:#b7bec0;fill-opacity:1;fill-rule:nonzero;stroke:none"
           d="m 67.578,30.63 -51.277,0 0,0.917 51.277,0 0,-0.917 z"
           inkscape:connector-curvature="0" /><path
           id="path3459"
           style="fill:#b7bec0;fill-opacity:1;fill-rule:nonzero;stroke:none"
           d="m 68.904,28.458 -52.604,0 0,0.917 52.604,0 0,-0.917 z"
           inkscape:connector-curvature="0" /><path
           id="path3461"
           style="fill:#b7bec0;fill-opacity:1;fill-rule:nonzero;stroke:none"
           d="m 34.646,26.287 -18.346,0 0,0.918 18.346,0 0,-0.918 z"
           inkscape:connector-curvature="0" /><path
           id="path3463"
           style="fill:#b7bec0;fill-opacity:1;fill-rule:nonzero;stroke:none"
           d="m 69.346,53.212 -53.045,0 0,0.916 53.045,0 0,-0.916 z"
           inkscape:connector-curvature="0" /><path
           id="path3465"
           style="fill:#b7bec0;fill-opacity:1;fill-rule:nonzero;stroke:none"
           d="m 60.337,51.041 -44.036,0 0,0.917 44.036,0 0,-0.917 z"
           inkscape:connector-curvature="0" /></g></g><g
       id="g3467"><g
         clip-path="url(#clipPath3471)"
         id="g3469"><g
           transform="translate(81.0498,35.5503)"
           id="g3475"><path
             id="path3477"
             style="fill:#30363d;fill-opacity:1;fill-rule:nonzero;stroke:none"
             d="m 0,0 c -3.769,-3.784 -8.766,-5.859 -14.081,-5.865 -10.959,-0.003 -19.875,8.907 -19.873,19.867 0,5.286 2.059,10.266 5.802,14.02 3.758,3.78 8.756,5.857 14.061,5.859 5.306,0.002 10.294,-2.061 14.055,-5.825 C 3.722,24.301 5.792,19.309 5.798,14.012 5.798,8.729 3.742,3.754 0,0 m 3.188,31.284 c -4.621,4.619 -10.758,7.162 -17.279,7.158 -6.531,10e-4 -12.678,-2.552 -17.298,-7.194 -4.596,-4.622 -7.132,-10.748 -7.131,-17.246 0.005,-13.471 10.969,-24.436 24.443,-24.427 6.538,0 12.685,2.561 17.308,7.2 4.6,4.62 7.125,10.741 7.127,17.237 -0.003,6.521 -2.546,12.654 -7.17,17.272"
             inkscape:connector-curvature="0" /></g><g
           id="g3479"><g
             id="g3481" /><g
             id="g3487"><g
               style="opacity:0.19999701"
               id="g3489"
               clip-path="url(#clipPath3483)"><g
                 id="g3491"
                 transform="translate(52.9443,63.5264)"><path
                   id="path3493"
                   style="fill:#ffffff;fill-opacity:1;fill-rule:nonzero;stroke:none"
                   d="m 0,0 c -3.728,-3.742 -5.782,-8.707 -5.782,-13.976 -0.001,-10.92 8.886,-19.802 19.808,-19.795 5.295,10e-4 10.275,2.073 14.031,5.84 3.733,3.745 5.777,8.7 5.778,13.967 -0.003,5.28 -2.068,10.252 -5.814,13.996 C 24.272,3.779 19.301,5.838 14.017,5.838 8.726,5.836 3.747,3.765 0,0"
                   inkscape:connector-curvature="0" /></g></g></g></g><g
           id="g3495"><g
             id="g3497" /><g
             id="g3503"><g
               style="opacity:0.19999701"
               id="g3505"
               clip-path="url(#clipPath3499)"><g
                 id="g3507"
                 transform="translate(57.959,33.9067)"><path
                   id="path3509"
                   style="fill:#ffffff;fill-opacity:1;fill-rule:nonzero;stroke:none"
                   d="m 0,0 c -3.619,3.618 -5.615,8.423 -5.615,13.527 0,5.095 1.986,9.891 5.59,13.509 3.615,3.63 8.416,5.633 13.519,5.643 l 0.028,0.002 c 1.985,0 3.923,-0.302 5.767,-0.884 -3.049,1.953 -6.587,3 -10.289,3 L 8.977,34.796 c -5.108,-0.01 -9.911,-2.017 -13.526,-5.645 -3.6,-3.615 -5.587,-8.414 -5.585,-13.507 -10e-4,-5.105 1.992,-9.908 5.613,-13.526 2.213,-2.213 4.869,-3.816 7.769,-4.725 C 2.088,-1.865 0.998,-0.998 0,0"
                   inkscape:connector-curvature="0" /></g></g></g></g><g
           transform="translate(66.9707,28.5571)"
           id="g3511"><path
             id="path3513"
             style="fill:#474f59;fill-opacity:1;fill-rule:nonzero;stroke:none"
             d="m 0,0 c -11.585,-0.008 -21.009,9.412 -21.007,20.991 0.001,5.592 2.178,10.855 6.131,14.823 3.974,3.991 9.255,6.188 14.865,6.191 l 10e-4,2.048 c -0.016,0.003 -0.029,0 -0.043,0 -6.15,-0.011 -11.929,-2.421 -16.275,-6.785 -4.338,-4.358 -6.729,-10.139 -6.731,-16.271 0.004,-12.71 10.346,-23.051 23.061,-23.046 L 0.003,0 0,0 Z"
             inkscape:connector-curvature="0" /></g><g
           transform="translate(89.4014,31.4961)"
           id="g3515"><path
             id="path3517"
             style="fill:#30363d;fill-opacity:1;fill-rule:nonzero;stroke:none"
             d="M 0,0 C -1.29,1.331 -2.586,2.659 -3.886,3.992 -4.491,4.598 -5.285,4.916 -6.063,4.908 -6.524,4.347 -7.016,3.803 -7.534,3.285 -8.071,2.743 -8.638,2.231 -9.224,1.754 c -0.004,-0.775 0.311,-1.572 0.912,-2.175 1.297,-1.334 2.598,-2.673 3.905,-4.016 1.257,-1.258 2.738,-0.828 3.97,0.442 l 0.01,0.004 C 0.825,-2.732 1.252,-1.243 0,0"
             inkscape:connector-curvature="0" /></g><g
           transform="translate(112.5449,11.0386)"
           id="g3519"><path
             id="path3521"
             style="fill:#484f59;fill-opacity:1;fill-rule:nonzero;stroke:none"
             d="m 0,0 -7.057,-7.055 -22.024,22.023 7.059,7.057 L 0,0 Z"
             inkscape:connector-curvature="0" /></g><g
           transform="translate(111.9814,10.4751)"
           id="g3523"><path
             id="path3525"
             style="fill:#30363d;fill-opacity:1;fill-rule:nonzero;stroke:none"
             d="m 0,0 -2.915,-2.915 -22.023,22.024 2.913,2.915 L 0,0 Z"
             inkscape:connector-curvature="0" /></g><g
           transform="translate(92.2158,31.3706)"
           id="g3527"><path
             id="path3529"
             style="fill:#e5e8ec;fill-opacity:1;fill-rule:nonzero;stroke:none"
             d="M 0,0 -7.058,-7.058 -8.752,-5.364 -1.693,1.693 0,0 Z"
             inkscape:connector-curvature="0" /></g><g
           transform="translate(91.418,30.8521)"
           id="g3531"><path
             id="path3533"
             style="fill:#cdd5d7;fill-opacity:1;fill-rule:nonzero;stroke:none"
             d="M 0,0 -3.119,-3.117 -4.283,-1.952 -1.166,1.166 0,0 Z"
             inkscape:connector-curvature="0" /></g><g
           transform="translate(114.2402,9.3462)"
           id="g3535"><path
             id="path3537"
             style="fill:#e5e8ec;fill-opacity:1;fill-rule:nonzero;stroke:none"
             d="m 0,0 c -0.001,-3.896 -3.16,-7.056 -7.058,-7.057 -0.565,0.565 -1.13,1.128 -1.694,1.694 2.354,2.354 4.705,4.706 7.057,7.055 C -1.13,1.129 -0.566,0.564 0,0"
             inkscape:connector-curvature="0" /></g><g
           transform="translate(113.5566,8.7144)"
           id="g3539"><path
             id="path3541"
             style="fill:#cdd5d7;fill-opacity:1;fill-rule:nonzero;stroke:none"
             d="M 0,0 -3.118,-3.118 -4.574,-1.662 -1.457,1.456 0,0 Z"
             inkscape:connector-curvature="0" /></g></g></g></g></svg>