<?xml version="1.0" encoding="UTF-8" standalone="no"?>
<svg
   xmlns:dc="http://purl.org/dc/elements/1.1/"
   xmlns:cc="http://creativecommons.org/ns#"
   xmlns:rdf="http://www.w3.org/1999/02/22-rdf-syntax-ns#"
   xmlns:svg="http://www.w3.org/2000/svg"
   xmlns="http://www.w3.org/2000/svg"
   xmlns:sodipodi="http://sodipodi.sourceforge.net/DTD/sodipodi-0.dtd"
   xmlns:inkscape="http://www.inkscape.org/namespaces/inkscape"
   width="45.599998pt"
   height="40.799999pt"
   viewBox="0 0 45.599998 40.799999"
   version="1.1"
   id="svg2"
   inkscape:version="0.91 r13725"
   sodipodi:docname="rubble.svg">
  <metadata
     id="metadata31">
    <rdf:RDF>
      <cc:Work
         rdf:about="">
        <dc:format>image/svg+xml</dc:format>
        <dc:type
           rdf:resource="http://purl.org/dc/dcmitype/StillImage" />
        <dc:title></dc:title>
      </cc:Work>
    </rdf:RDF>
  </metadata>
  <defs
     id="defs29" />
  <sodipodi:namedview
     pagecolor="#ffffff"
     bordercolor="#666666"
     borderopacity="1"
     objecttolerance="10"
     gridtolerance="10"
     guidetolerance="10"
     inkscape:pageopacity="0"
     inkscape:pageshadow="2"
     inkscape:window-width="792"
     inkscape:window-height="480"
     id="namedview27"
     showgrid="false"
     fit-margin-top="0"
     fit-margin-left="0"
     fit-margin-right="0"
     fit-margin-bottom="0"
     inkscape:zoom="3.4962963"
     inkscape:cx="38.125"
     inkscape:cy="33.75"
     inkscape:window-x="0"
     inkscape:window-y="0"
     inkscape:window-maximized="0"
     inkscape:current-layer="svg2" />
  <g
     id="#ffffffff"
     transform="scale(0.74754098,0.75555556)">
    <path
       d="m 45.53,0 1.95,0 C 52.13,0.53 57.1,0.79 61,3.69 l 0,1.14 C 57.23,8.31 51.78,8.29 46.97,8.56 42.23,8.42 37.12,8.46 32.91,5.98 31.33,5.61 31.44,3.43 32.78,2.85 36.6,0.57 41.23,0.51 45.53,0 Z"
       id="path5"
       inkscape:connector-curvature="0"
       style="opacity:1;fill:#ffffff" />
    <path
       d="M 31.73,7.63 C 40.94,11.22 51.91,11.48 61,7.4 l 0,6.29 C 57.98,16.32 53.84,17 49.97,17.19 43.84,17.49 37.33,17.46 31.85,14.29 31.8,12.07 31.77,9.85 31.73,7.63 Z"
       id="path7"
       inkscape:connector-curvature="0"
       style="opacity:1;fill:#ffffff" />
    <path
       d="m 0,12.62 c 2.7,-2.47 6.43,-3.06 9.91,-3.53 5.43,-0.38 11.04,-0.37 16.24,1.46 1.48,0.59 3.54,1.41 3,3.4 -3.99,3.06 -9.32,3.22 -14.14,3.29 C 9.88,17.21 4.17,17.11 0,13.7 l 0,-1.08 z"
       id="path9"
       inkscape:connector-curvature="0"
       style="opacity:1;fill:#ffffff" />
    <path
       d="m 0,16.06 c 5.49,3.02 11.94,3.14 18.05,2.9 3.9,-0.08 7.68,-1.19 11.27,-2.64 -0.1,2.15 0.02,4.32 -0.34,6.45 -2.69,2.37 -6.51,2.7 -9.92,3.2 C 12.64,26.18 5.39,26.59 0,22.47 l 0,-6.41 z"
       id="path11"
       inkscape:connector-curvature="0"
       style="opacity:1;fill:#ffffff" />
    <path
       d="m 31.68,16.34 c 3.26,1.33 6.68,2.44 10.23,2.59 6.44,0.27 13.26,0.37 19.09,-2.82 l 0,6.31 C 56.35,26.36 49.79,26.12 44.05,26.1 39.94,25.84 35.26,25.58 32,22.77 31.67,20.64 31.77,18.48 31.68,16.34 Z"
       id="path13"
       inkscape:connector-curvature="0"
       style="opacity:1;fill:#ffffff" />
    <path
       d="m 0,24.87 c 6.37,3.21 13.81,3.49 20.77,2.6 -2.43,2.18 -4.21,4.93 -5.42,7.94 C 10.11,35.2 4.27,35.36 0,31.8 l 0,-6.93 z"
       id="path15"
       inkscape:connector-curvature="0"
       style="opacity:1;fill:#ffffff" />
    <path
       d="M 40.24,27.49 C 47.2,28.33 54.64,28.1 61,24.86 l 0,6.88 c -4.21,3.67 -10.12,3.43 -15.34,3.68 -1.21,-3.01 -3,-5.75 -5.42,-7.93 z"
       id="path17"
       inkscape:connector-curvature="0"
       style="opacity:1;fill:#ffffff" />
    <path
       d="M 16.69,40.05 C 16.03,30.86 26.48,23.24 35,26.8 c 7.35,2.34 11.28,11.32 8.26,18.36 -1.89,5.02 -6.87,8.12 -12.04,8.84 l -1.34,0 C 22.81,53.44 16.38,47.37 16.69,40.05 m 9.32,-8 C 26,34.53 26,37.01 26,39.5 c -3.11,-0.44 -3.09,3.62 0,3.22 0,0.12 0,0.37 0.01,0.49 -3.04,-0.48 -3.17,3.59 -0.02,3 0.03,0.64 0.1,1.94 0.13,2.59 0.67,-0.06 2,-0.17 2.67,-0.22 0.03,-0.65 0.09,-1.94 0.13,-2.58 2.09,-0.01 4.18,-0.03 6.28,-0.1 0.45,-3.87 -4.01,-2.05 -6.34,-2.48 0,-0.22 0.02,-0.68 0.02,-0.9 2.22,-0.1 4.55,0.17 6.64,-0.76 2.85,-1.67 3.36,-6.05 0.88,-8.26 -2.82,-2.56 -6.97,-1.09 -10.39,-1.45 z"
       id="path19"
       inkscape:connector-curvature="0"
       style="opacity:1;fill:#ffffff" />
    <path
       d="m 0,34.16 c 4.54,2.54 9.83,3.03 14.94,2.86 0.03,2.7 0.14,5.4 0.63,8.06 C 10.29,44.43 4.29,44.78 0,41.12 l 0,-6.96 z"
       id="path21"
       inkscape:connector-curvature="0"
       style="opacity:1;fill:#ffffff" />
    <path
       d="M 46.06,37.02 C 51.17,37.21 56.44,36.67 61,34.19 l 0,6.9 c -4.25,3.72 -10.29,3.31 -15.55,4 0.45,-2.67 0.59,-5.37 0.61,-8.07 z"
       id="path23"
       inkscape:connector-curvature="0"
       style="opacity:1;fill:#ffffff" />
    <path
       d="m 28.87,34.83 c 2.13,0.2 5.8,-0.72 6.13,2.33 -0.09,3.02 -4,2.56 -6.12,2.69 0,-1.68 -0.01,-3.35 -0.01,-5.02 z"
       id="path25"
       inkscape:connector-curvature="0"
       style="opacity:1;fill:#ffffff" />
  </g>
</svg>
