<?xml version="1.0" encoding="UTF-8" standalone="no"?>
<svg
   xmlns:dc="http://purl.org/dc/elements/1.1/"
   xmlns:cc="http://creativecommons.org/ns#"
   xmlns:rdf="http://www.w3.org/1999/02/22-rdf-syntax-ns#"
   xmlns:svg="http://www.w3.org/2000/svg"
   xmlns="http://www.w3.org/2000/svg"
   xmlns:sodipodi="http://sodipodi.sourceforge.net/DTD/sodipodi-0.dtd"
   xmlns:inkscape="http://www.inkscape.org/namespaces/inkscape"
   width="37.599998pt"
   height="40.799999pt"
   viewBox="0 0 37.599998 40.799999"
   version="1.1"
   id="svg2"
   inkscape:version="0.91 r13725"
   sodipodi:docname="tools.svg">
  <metadata
     id="metadata11">
    <rdf:RDF>
      <cc:Work
         rdf:about="">
        <dc:format>image/svg+xml</dc:format>
        <dc:type
           rdf:resource="http://purl.org/dc/dcmitype/StillImage" />
        <dc:title></dc:title>
      </cc:Work>
    </rdf:RDF>
  </metadata>
  <defs
     id="defs9" />
  <sodipodi:namedview
     pagecolor="#ffffff"
     bordercolor="#666666"
     borderopacity="1"
     objecttolerance="10"
     gridtolerance="10"
     guidetolerance="10"
     inkscape:pageopacity="0"
     inkscape:pageshadow="2"
     inkscape:window-width="796"
     inkscape:window-height="480"
     id="namedview7"
     showgrid="false"
     fit-margin-top="0"
     fit-margin-left="0"
     fit-margin-right="0"
     fit-margin-bottom="0"
     inkscape:zoom="4.0170213"
     inkscape:cx="26.875"
     inkscape:cy="29.375"
     inkscape:window-x="0"
     inkscape:window-y="0"
     inkscape:window-maximized="0"
     inkscape:current-layer="svg2" />
  <g
     id="#ffffffff"
     transform="matrix(0.8744186,0,0,0.87366167,0,-0.2620985)">
    <path
       d="m 6.85,0.3 c 3.49,0.45 6.86,1.47 10.2,2.52 -0.02,3.12 -0.02,6.23 -0.03,9.35 2.33,2.47 4.67,4.92 7.08,7.31 3.54,-3.63 7.42,-7.04 9.77,-11.61 1.12,-2.38 3.56,-3.46 5.75,-4.62 0.86,0.95 1.71,1.9 2.57,2.84 -0.83,1.53 -1.67,3.06 -2.51,4.58 -5.2,2.75 -9.18,7.09 -13.13,11.34 5.4,5.7 10.91,11.3 16.24,17.06 -0.6,0.58 -1.2,1.16 -1.8,1.75 l -0.13,-2.11 c -3.53,-0.57 -3.61,4.14 -0.03,3.6 l 0,-1.41 c 0.54,0.12 1.63,0.34 2.17,0.46 l 0,0.49 c -1.53,0.94 -3.24,2.82 -5.02,1.26 -5.62,-5.16 -10.58,-11.02 -16,-16.41 -0.93,0.97 -1.87,1.94 -2.8,2.92 0.46,0.48 1.37,1.45 1.82,1.93 -1.11,0.91 -2.15,2.07 -3.67,2.21 -2.55,4.1 -6.61,6.81 -9.61,10.49 C 7.3,45.16 6.9,46.08 6.5,47 L 5.26,47 C 5.37,46.84 5.59,46.51 5.7,46.35 3.78,44.47 2.06,42.4 0,40.68 l 0,-0.53 0.51,-0.18 c 0.96,-0.73 2.02,-1.24 3.18,-1.52 2.26,-3.29 5.16,-6.03 8.09,-8.71 1.56,-1.52 2.7,-6.05 5.07,-2.73 0.9,-0.94 1.8,-1.87 2.7,-2.81 C 17.04,21.73 14.86,18.84 12.01,16.74 9.16,16.53 6.31,16.67 3.46,16.53 2.76,13.16 1.81,9.85 1,6.51 3.55,7.33 5.08,9.68 6.94,11.44 8.66,9.72 10.35,7.98 12.03,6.23 10.17,4.38 8.31,2.5 6.85,0.3 Z"
       id="path5"
       inkscape:connector-curvature="0"
       style="opacity:1;fill:#ffffff" />
  </g>
</svg>
