<?xml version="1.0" encoding="UTF-8" standalone="no"?>
<svg
   xmlns:dc="http://purl.org/dc/elements/1.1/"
   xmlns:cc="http://creativecommons.org/ns#"
   xmlns:rdf="http://www.w3.org/1999/02/22-rdf-syntax-ns#"
   xmlns:svg="http://www.w3.org/2000/svg"
   xmlns="http://www.w3.org/2000/svg"
   xmlns:sodipodi="http://sodipodi.sourceforge.net/DTD/sodipodi-0.dtd"
   xmlns:inkscape="http://www.inkscape.org/namespaces/inkscape"
   width="40.799999pt"
   height="40.799999pt"
   viewBox="0 0 40.799999 40.799999"
   version="1.1"
   id="svg2"
   inkscape:version="0.91 r13725"
   sodipodi:docname="window.svg">
  <metadata
     id="metadata17">
    <rdf:RDF>
      <cc:Work
         rdf:about="">
        <dc:format>image/svg+xml</dc:format>
        <dc:type
           rdf:resource="http://purl.org/dc/dcmitype/StillImage" />
        <dc:title></dc:title>
      </cc:Work>
    </rdf:RDF>
  </metadata>
  <defs
     id="defs15" />
  <sodipodi:namedview
     pagecolor="#ffffff"
     bordercolor="#666666"
     borderopacity="1"
     objecttolerance="10"
     gridtolerance="10"
     guidetolerance="10"
     inkscape:pageopacity="0"
     inkscape:pageshadow="2"
     inkscape:window-width="792"
     inkscape:window-height="480"
     id="namedview13"
     showgrid="false"
     fit-margin-top="0"
     fit-margin-left="0"
     fit-margin-right="0"
     fit-margin-bottom="0"
     inkscape:zoom="4.3906977"
     inkscape:cx="26.875"
     inkscape:cy="26.875"
     inkscape:window-x="0"
     inkscape:window-y="0"
     inkscape:window-maximized="0"
     inkscape:current-layer="svg2" />
  <g
     id="#ffffffff"
     transform="scale(0.94883721,0.94883721)">
    <path
       d="m 1.75,0 15.47,0 c 0.71,0.29 2.15,0.88 2.87,1.18 0.09,5.9 0.42,11.84 -0.11,17.72 -0.27,0.27 -0.82,0.8 -1.09,1.07 C 13.02,20.52 7.1,20.16 1.21,20.1 0.91,19.45 0.3,18.13 0,17.48 L 0,1.64 C 1.33,1.88 1.91,1.33 1.75,0 Z"
       id="path5"
       inkscape:connector-curvature="0"
       style="opacity:1;fill:#ffffff" />
    <path
       d="M 24.95,0 40.2,0 c 0.62,0.89 1.52,2.27 2.8,1.81 l 0,15.73 c -0.26,0.64 -0.78,1.93 -1.04,2.58 C 35.66,20.2 29.33,20.49 23.04,19.91 22.6,13.69 22.69,7.43 22.95,1.2 c 0.5,-0.3 1.5,-0.9 2,-1.2 m -0.18,1.97 c -0.95,5.15 -0.45,10.49 -0.35,15.69 0.28,0.23 0.83,0.69 1.1,0.92 5.14,-0.03 10.52,0.83 15.52,-0.54 C 40.9,12.74 41.14,7.42 40.87,2.12 35.51,1.87 30.13,2.08 24.77,1.97 Z"
       id="path7"
       inkscape:connector-curvature="0"
       style="opacity:1;fill:#ffffff" />
    <path
       d="m 1.4,23.16 c 5.74,-0.75 11.69,-0.46 17.47,-0.13 0.27,0.28 0.82,0.83 1.1,1.1 0.56,5.84 0.19,11.74 0.13,17.6 -0.64,0.32 -1.91,0.95 -2.55,1.27 L 2.23,43 C 1.79,41.84 0.99,40.88 0,40.15 l 0,-16.7 0.01,1.16 1.39,-1.45 z"
       id="path9"
       inkscape:connector-curvature="0"
       style="opacity:1;fill:#ffffff" />
    <path
       d="m 22.87,24.97 c -0.03,-1.42 0.67,-2.12 2.11,-2.08 5.58,-0.26 11.18,-0.13 16.76,0.02 0.32,0.66 0.95,1.98 1.26,2.63 l 0,14.54 C 41.89,40.9 40.85,41.83 40.1,43 L 25.08,43 C 24.54,42.66 23.47,41.98 22.93,41.64 22.74,36.09 22.66,30.52 22.87,24.97 Z"
       id="path11"
       inkscape:connector-curvature="0"
       style="opacity:1;fill:#ffffff" />
  </g>
</svg>
